<svg id="Capa_1" enable-background="new 0 0 512 512" height="512" viewBox="0 0 512 512" width="512" xmlns="http://www.w3.org/2000/svg"><g><g><g><ellipse cx="256" cy="471.756" fill="#b6f0ff" rx="197.635" ry="40.244"/></g><g><path d="m255.999 431.508c-34.006 0-66 1.75-93.941 4.831-7.922.873-13.911 7.569-13.911 15.539 0 9.3 8.067 16.555 17.311 15.538 27.538-3.03 58.778-4.662 90.541-4.662 19.696 0 39.189.63 57.728 1.829 9.002.582 16.612-6.576 16.612-15.597v-.006c0-8.227-6.373-15.067-14.582-15.597-18.853-1.217-38.927-1.875-59.758-1.875z" fill="#dcfeff"/></g><g><path d="m204.43 432.909c-1.812.099-3.613.203-5.403.312-8.235.502-14.642 7.353-14.642 15.603v.001c0 8.998 7.574 16.152 16.556 15.603 1.729-.106 3.466-.207 5.21-.302 8.299-.456 14.806-7.297 14.806-15.608-.001-8.985-7.557-16.1-16.527-15.609z" fill="#fff"/></g><path d="m235.741 313.564h40.516v162.574h-40.516z" fill="#db765a"/><path d="m276.257 313.564v54.264c-7.447-1.229-14.332-4.145-20.258-8.332-5.926 4.187-12.811 7.103-20.258 8.332v-54.264z" fill="#b55434"/><path d="m276.257 416.802v59.336h-40.516v-26.788c1.156.104 2.323.156 3.5.156 19.049 0 34.756-14.28 37.016-32.704z" fill="#b55434"/><path d="m235.743 387.91v30.263c0 8.425 6.83 15.255 15.255 15.255 8.425 0 15.255-6.83 15.255-15.255v-30.263c0-8.425-6.83-15.255-15.255-15.255-8.425 0-15.255 6.83-15.255 15.255z" fill="#f4a698"/><path d="m255.999 32.673c0 101.47-143.467 258.373-166.853 283.275-2.253 2.399-3.3 5.727-2.657 8.954 2.59 12.984 14.05 22.769 27.795 22.769 15.653 0 28.343-12.69 28.343-28.343 0 15.653 12.69 28.343 28.343 28.343s28.343-12.69 28.343-28.343c0 15.653 12.69 28.343 28.343 28.343s28.343-12.69 28.343-28.343c0 15.653 12.69 28.343 28.343 28.343s28.343-12.69 28.343-28.343c0 15.653 12.69 28.343 28.343 28.343s28.343-12.69 28.343-28.343c0 15.653 12.69 28.343 28.343 28.343 13.745 0 25.205-9.785 27.795-22.769.644-3.227-.404-6.556-2.657-8.954-23.386-24.902-166.853-181.804-166.853-283.275z" fill="#12adb5"/><path d="m422.853 315.95c-23.383-24.904-166.854-181.811-166.854-283.277 0 72.314-72.866 172.78-123.203 233.564 3.187.646 6.478.979 9.832.979 10.54 0 20.331-3.333 28.34-9.009.174.123.353.239.529.36 4.301 13.104 16.645 22.603 31.173 22.603 13.469 0 25.06-8.164 30.107-19.796 6.92 3.725 14.831 5.842 23.222 5.842 10.54 0 20.331-3.333 28.34-9.009 8.02 5.677 17.8 9.009 28.351 9.009 5.929 0 11.617-1.054 16.887-2.988 6.493-2.381 13.477 2.188 13.525 9.103 0 .052.001.104.001.154 0 25.007-7.291 48.307-19.873 67.898 4.864 3.937 11.051 6.291 17.8 6.291 15.654 0 28.34-12.696 28.34-28.351 0 15.654 12.686 28.351 28.34 28.351 13.748 0 25.205-9.791 27.799-22.768.646-3.228-.406-6.561-2.656-8.956z" fill="#0d8ba0"/><path d="m393.786 214.576c-12.484-11.294-52.421-49.432-86.105-103.801h-103.364c-33.685 54.369-73.621 92.507-86.106 103.801-2.798 2.531-4.031 6.389-3.158 10.059 2.97 12.476 14.188 21.755 27.573 21.755 15.653 0 28.343-12.69 28.343-28.343 0 15.653 12.69 28.343 28.343 28.343s28.343-12.69 28.343-28.343c0 15.653 12.69 28.343 28.343 28.343s28.343-12.69 28.343-28.343c0 15.653 12.69 28.343 28.343 28.343s28.343-12.69 28.343-28.343c0 15.653 12.689 28.343 28.343 28.343 13.385 0 24.603-9.279 27.573-21.755.875-3.67-.359-7.528-3.157-10.059z" fill="#57eae6"/><path d="m396.94 224.64c-2.97 12.47-14.18 21.75-27.57 21.75-7.83 0-14.91-3.17-20.04-8.3s-8.3-12.21-8.3-20.04c0 15.65-12.69 28.34-28.35 28.34-3.79 0-7.41-.74-10.71-2.1 7.36-4.07 13.72-9.71 18.62-16.48 3.09-4.26.04-10.11-5.22-10.09h-.13c-13.25 0-24.69-7.89-29.86-19.22-5.77 5.05-13.32 8.11-21.58 8.11-8.76 0-17-3.41-23.19-9.61-2.01-2.01-3.73-4.23-5.13-6.62v47.21c-4.85-5.08-7.82-11.96-7.82-19.54 0 15.65-12.69 28.34-28.35 28.34-15.65 0-28.34-12.69-28.34-28.34 0 2.73.391-50.47.391-50.47-2.16-.05-5.781-.24-7.871-.56 13.2-15.77 27.51-34.74 40.83-56.24h103.36c33.69 54.36 73.62 92.5 86.11 103.8 2.79 2.53 4.03 6.38 3.15 10.06z" fill="#3cd3d3"/><g><g><path d="m286.776 481.229 9.504-9.504c3.034-3.034 2.317-6.983-1.734-8.4-1.883-.659-3.893-.154-5.228 1.181l-6.087 6.087v-12.379c0-2.77-2.246-5.015-5.015-5.015-2.77 0-5.015 2.246-5.015 5.015v12.375l-5.971-5.971c-.957-.957-2.238-1.564-3.591-1.58-4.514-.054-6.79 5.387-3.614 8.563l9.628 9.628c2.272 2.272 5.354 3.548 8.567 3.546 3.208 0 6.286-1.276 8.556-3.546z" fill="#57eae6"/></g><g><path d="m381.246 451.4 9.504-9.504c3.034-3.034 2.317-6.983-1.734-8.4-1.883-.659-3.893-.154-5.228 1.181l-6.087 6.087v-12.379c0-2.77-2.246-5.015-5.015-5.015-2.77 0-5.015 2.245-5.015 5.015v12.375l-5.971-5.971c-.957-.957-2.238-1.564-3.591-1.58-4.514-.054-6.79 5.387-3.614 8.563l9.628 9.628c2.272 2.272 5.354 3.548 8.567 3.546 3.208-.001 6.286-1.276 8.556-3.546z" fill="#12adb5"/></g><g><path d="m245.436 486.765 9.504-9.504c3.034-3.034 2.317-6.983-1.734-8.4-1.883-.659-3.893-.154-5.228 1.181l-6.087 6.087v-12.379c0-2.77-2.245-5.015-5.015-5.015-2.77 0-5.015 2.245-5.015 5.015v12.375l-5.971-5.971c-.957-.957-2.238-1.564-3.591-1.58-4.514-.054-6.79 5.387-3.614 8.563l9.628 9.628c2.272 2.272 5.354 3.548 8.567 3.546 3.209-.001 6.287-1.276 8.556-3.546z" fill="#12adb5"/></g></g><g><g><path d="m124.551 456.803 9.504-9.504c3.034-3.034 2.317-6.983-1.734-8.4-1.883-.659-3.893-.154-5.228 1.181l-6.087 6.087v-12.379c0-2.77-2.245-5.015-5.015-5.015-2.77 0-5.015 2.246-5.015 5.015v12.375l-5.971-5.971c-.957-.957-2.238-1.564-3.591-1.58-4.514-.054-6.79 5.387-3.614 8.563l9.628 9.628c2.272 2.272 5.354 3.548 8.567 3.546 3.208 0 6.286-1.276 8.556-3.546z" fill="#3cd3d3"/></g></g><path d="m122.239 278.795c-1.639 1.924-3.242 3.793-4.804 5.604-8.729 10.119-1.524 25.812 11.84 25.812h.002c4.542 0 8.857-1.97 11.823-5.41 1.601-1.857 3.244-3.774 4.924-5.747 8.635-10.142 1.427-25.752-11.893-25.752-4.575.001-8.926 2.011-11.892 5.493z" fill="#3cd3d3"/><path d="m153.01 217.865c8.492-8.831 18.526-19.91 29.091-32.917 6.843-8.425.848-21.027-10.006-21.027-3.808 0-7.418 1.693-9.872 4.604-10.662 12.647-20.546 23.169-28.534 31.215-5.531 5.57-4.865 14.75 1.438 19.428.072.054.145.107.217.161 5.424 4.024 12.984 3.405 17.666-1.464z" fill="#a5f9f3"/></g><path d="m364.85 115.759c-16.949-13.334-76.927-62.657-99.845-110.12-1.668-3.455-5.17-5.639-9.006-5.639-3.836 0-7.339 2.184-9.007 5.639-22.918 47.463-82.896 96.786-99.845 110.12-3.194 2.513-4.637 6.675-3.62 10.61 3.157 12.209 14.246 21.228 27.442 21.228.073 0 .145 0 .218-.001 10.246-.077 18.677 7.994 18.677 18.24v82.53c0 7.072 5.733 12.805 12.805 12.805 7.072 0 12.805-5.733 12.805-12.805v-86.712c0-8.608 6.113-16.042 14.579-17.599.153-.028.307-.057.461-.086 10.636-2.012 20.482 6.138 20.482 16.963v12.876c0 7.072 5.733 12.805 12.805 12.805 7.072 0 12.805-5.733 12.805-12.805v-15.502c0-6.272 4.596-11.56 10.793-12.526.11-.017.22-.034.33-.052 7.71-1.231 14.704 4.691 14.704 12.499v26.691c0 7.072 5.733 12.805 12.805 12.805 7.072 0 12.805-5.733 12.805-12.805v-24.79c0-7.044 5.799-12.566 12.843-12.531h.14c13.196 0 24.286-9.018 27.442-21.228 1.019-3.935-.423-8.097-3.618-10.61z" fill="#b6f0ff"/><path d="m368.47 126.37c-3.16 12.21-14.25 21.23-27.44 21.23h-.14c-7.05-.04-12.85 5.48-12.85 12.53v24.79c0 3.54-1.43 6.74-3.75 9.05-2.31 2.32-5.51 3.75-9.05 3.75-7.07 0-12.81-5.73-12.81-12.8v-26.69c0-7.81-6.99-13.73-14.7-12.5-.11.01-.22.03-.33.05-6.2.97-10.79 6.25-10.79 12.53v15.5c0 3.53-1.43 6.73-3.75 9.05s-5.52 3.75-9.06 3.75c-7.07 0-12.8-5.73-12.8-12.8v-12.88c0-4.63-1.8-8.77-4.7-11.83 38.22-4.79 68.46-35.23 72.94-73.54 19.22 18.95 37.43 33.77 45.61 40.2 3.19 2.51 4.64 6.67 3.62 10.61z" fill="#73e1ff"/><g fill="#dcfeff"><path d="m215.475 213.915v-25.128c0-7.072-5.733-12.805-12.805-12.805-7.072 0-12.805 5.733-12.805 12.805v25.128c0 7.072 5.733 12.805 12.805 12.805 7.072 0 12.805-5.733 12.805-12.805z"/><path d="m287.11 280.514c-6.684 0-12.103-5.419-12.103-12.103v-3.509c0-6.684 5.418-12.103 12.103-12.103 6.684 0 12.103 5.418 12.103 12.103v3.509c0 6.684-5.419 12.103-12.103 12.103z"/><path d="m307.546 131.958c-6.684 0-12.103-5.418-12.103-12.103v-3.509c0-6.684 5.418-12.103 12.103-12.103 6.684 0 12.103 5.418 12.103 12.103v3.509c0 6.684-5.419 12.103-12.103 12.103z"/><path d="m270.365 102.97c-6.684 0-12.103-5.418-12.103-12.103v-3.509c0-6.684 5.418-12.103 12.103-12.103 6.684 0 12.103 5.418 12.103 12.103v3.509c0 6.684-5.419 12.103-12.103 12.103z"/><path d="m238.895 225.374c-6.684 0-12.103-5.419-12.103-12.103v-3.509c0-6.684 5.418-12.103 12.103-12.103 6.684 0 12.103 5.418 12.103 12.103v3.509c0 6.684-5.419 12.103-12.103 12.103z"/><path d="m189.865 299.438c-6.684 0-12.103-5.418-12.103-12.103v-3.509c0-6.684 5.418-12.103 12.103-12.103 6.684 0 12.103 5.418 12.103 12.103v3.509c-.001 6.685-5.419 12.103-12.103 12.103z"/><path d="m336.721 318.631c-6.684 0-12.103-5.418-12.103-12.103v-3.509c0-6.684 5.418-12.103 12.103-12.103 6.684 0 12.103 5.418 12.103 12.103v3.509c-.001 6.684-5.419 12.103-12.103 12.103z"/><path d="m239.832 45.656c-.077-.064-.154-.128-.232-.191-6.266-5.179-15.494-4.314-20.711 1.92-11.491 13.733-24.205 26.603-35.906 37.55-6.742 6.308-6.25 17.142 1.035 22.814.08.063.161.125.241.188 5.681 4.423 13.744 4.088 19.007-.825 12.636-11.797 26.182-25.539 38.557-40.351 5.318-6.365 4.403-15.823-1.991-21.105z"/></g><path d="m199.461 68.793c-.066.068-.133.136-.199.205-5.395 5.534-5.476 14.327-.189 19.963.26.277.52.555.78.832 5.633 6.01 15.143 6.117 20.892.216.082-.084.163-.168.245-.252 5.616-5.772 5.447-15.017-.389-20.566-.275-.262-.551-.524-.826-.786-5.734-5.458-14.79-5.285-20.314.388z" fill="#fff"/></g></svg>